<svg width="16" height="17" viewBox="0 0 16 17" fill="none" xmlns="http://www.w3.org/2000/svg">
<g id="Group">
<path id="Vector" d="M1.98303 6.88C2.0132 6.5041 2.18385 6.15336 2.46099 5.89763C2.73813 5.64189 3.10143 5.49992 3.47853 5.5H12.522C12.8991 5.49992 13.2624 5.64189 13.5396 5.89763C13.8167 6.15336 13.9874 6.5041 14.0175 6.88L14.6198 14.38C14.6363 14.5864 14.61 14.794 14.5424 14.9897C14.4748 15.1854 14.3674 15.365 14.227 15.5172C14.0866 15.6694 13.9162 15.7908 13.7266 15.8739C13.5369 15.957 13.3321 15.9999 13.125 16H2.87553C2.66848 15.9999 2.46367 15.957 2.27402 15.8739C2.08436 15.7908 1.91397 15.6694 1.77356 15.5172C1.63314 15.365 1.52576 15.1854 1.45816 14.9897C1.39057 14.794 1.36422 14.5864 1.38078 14.38L1.98303 6.88V6.88Z" stroke="#F7FAFA" stroke-width="2" stroke-linecap="round" stroke-linejoin="round"/>
<path id="Vector_2" d="M11 7.75V4C11 3.20435 10.6839 2.44129 10.1213 1.87868C9.55871 1.31607 8.79565 1 8 1C7.20435 1 6.44129 1.31607 5.87868 1.87868C5.31607 2.44129 5 3.20435 5 4V7.75" stroke="#F7FAFA" stroke-width="2" stroke-linecap="round" stroke-linejoin="round"/>
</g>
</svg>
