<svg width="22" height="19" viewBox="0 0 22 19" fill="none" xmlns="http://www.w3.org/2000/svg">
<path d="M21.7429 9.25865C21.7429 7.89353 20.6317 6.78329 19.2673 6.78329C18.6762 6.78329 18.1232 6.99953 17.677 7.37777C17.6626 7.38665 17.6478 7.39505 17.6336 7.40417C16.0239 6.37433 13.8894 5.71673 11.5282 5.62745L12.9375 1.61993L16.455 2.46089C16.4578 3.57281 17.3624 4.47689 18.4758 4.47689C19.5898 4.47689 20.497 3.57041 20.497 2.45585C20.497 1.34081 19.5898 0.434326 18.4758 0.434326C17.6288 0.434326 16.9052 0.958006 16.6052 1.69673L12.4378 0.700726L10.7072 5.61833C8.24504 5.66465 6.01375 6.33089 4.34407 7.39529C3.89455 7.00529 3.33367 6.78305 2.73175 6.78305C1.36687 6.78305 0.257355 7.89353 0.257355 9.25841C0.257355 10.1027 0.692955 10.8827 1.39879 11.3368C1.35373 11.5841 1.3302 11.8349 1.32847 12.0863C1.32847 15.659 5.6588 18.5656 10.981 18.5656C16.3042 18.5656 20.6348 15.659 20.6348 12.0863C20.6335 11.8421 20.6117 11.5985 20.5695 11.3579C21.2943 10.9072 21.7429 10.1159 21.7429 9.25865ZM14.2635 12.4634C14.0638 12.4634 13.866 12.4241 13.6815 12.3476C13.497 12.2712 13.3294 12.1591 13.1882 12.0179C13.047 11.8766 12.9351 11.7089 12.8587 11.5243C12.7824 11.3398 12.7432 11.142 12.7434 10.9422C12.7434 10.6414 12.8327 10.3474 12.9998 10.0973C13.167 9.84719 13.4046 9.65229 13.6826 9.53724C13.9605 9.42218 14.2663 9.39214 14.5614 9.45091C14.8564 9.50968 15.1274 9.65462 15.34 9.8674C15.5526 10.0802 15.6974 10.3512 15.756 10.6463C15.8146 10.9414 15.7843 11.2472 15.6691 11.5251C15.5539 11.8029 15.3588 12.0404 15.1086 12.2074C14.8584 12.3744 14.5643 12.4635 14.2635 12.4634ZM14.5662 15.0568C14.5206 15.1034 13.4302 16.2138 10.964 16.2138C8.48407 16.2138 7.49288 15.0885 7.45135 15.04C7.38459 14.9616 7.3516 14.8599 7.35961 14.7572C7.36762 14.6545 7.41596 14.5592 7.49407 14.4921C7.57225 14.4258 7.67333 14.3928 7.77558 14.4002C7.87783 14.4077 7.97306 14.455 8.04079 14.5319C8.06287 14.5569 8.8904 15.437 10.964 15.437C13.0722 15.437 13.9974 14.5254 14.0072 14.5166C14.0795 14.4454 14.1767 14.4053 14.2782 14.4048C14.3796 14.4043 14.4773 14.4435 14.5502 14.514C14.6232 14.5845 14.6657 14.6807 14.6687 14.7822C14.6716 14.8836 14.6348 14.9821 14.5662 15.0568ZM6.39416 10.9422C6.39066 10.7403 6.42744 10.5396 6.50234 10.352C6.57723 10.1644 6.68875 9.99364 6.83038 9.84961C6.97201 9.70558 7.14091 9.59121 7.32722 9.51317C7.51354 9.43513 7.71353 9.39498 7.91553 9.39508C8.11753 9.39517 8.31748 9.43551 8.50372 9.51372C8.68996 9.59194 8.85875 9.70647 9.00024 9.85064C9.14174 9.9948 9.25309 10.1657 9.32781 10.3534C9.40253 10.541 9.43912 10.7417 9.43544 10.9437C9.42817 11.3423 9.26466 11.7221 8.98013 12.0014C8.69559 12.2807 8.31277 12.437 7.91409 12.4368C7.5154 12.4366 7.13273 12.2799 6.84846 12.0004C6.56419 11.7209 6.40105 11.3409 6.39416 10.9422Z" fill="#8F8F8F"/>
</svg>
