<svg width="18" height="15" viewBox="0 0 18 15" fill="none" xmlns="http://www.w3.org/2000/svg">
<path d="M15.89 2.51197C16.698 2.01597 17.233 1.33897 17.495 0.477975C16.7571 0.877083 15.9651 1.1671 15.144 1.33897C14.441 0.582975 13.551 0.198975 12.484 0.198975C11.441 0.198975 10.56 0.564975 9.84099 1.27697C9.49377 1.61508 9.21924 2.02052 9.03422 2.46846C8.8492 2.91639 8.75758 3.39739 8.76499 3.88197C8.76499 4.19097 8.80399 4.46697 8.88199 4.70097C5.80599 4.59597 3.25999 3.31997 1.25399 0.863975C0.913993 1.46497 0.743993 2.07697 0.743993 2.70997C0.743993 4.01097 1.29299 5.04197 2.38899 5.79897C1.76399 5.74597 1.21299 5.58798 0.743993 5.32898C0.743993 6.25798 1.01699 7.03397 1.56399 7.71697C2.09535 8.38251 2.84417 8.83959 3.67899 9.00797C3.36699 9.08797 3.03799 9.12597 2.69999 9.12597C2.38799 9.12597 2.16699 9.09997 2.03599 9.04297C2.26599 9.79997 2.69999 10.414 3.32699 10.884C3.94683 11.3546 4.70081 11.6149 5.47899 11.627C4.14699 12.672 2.62399 13.189 0.900993 13.189C0.478993 13.189 0.179993 13.183 -0.00100708 13.151C1.69599 14.253 3.58499 14.8 5.67499 14.8C7.81399 14.8 9.70399 14.258 11.349 13.174C12.994 12.096 14.208 10.766 14.988 9.19997C15.7593 7.68468 16.161 6.00829 16.16 4.30797V3.83997C16.879 3.3099 17.5014 2.66009 18 1.91897C17.3266 2.21084 16.6168 2.41031 15.89 2.51197Z" fill="#8F8F8F"/>
</svg>
