<svg width="18" height="19" viewBox="0 0 18 19" fill="none" xmlns="http://www.w3.org/2000/svg">
<path d="M15 0.5H3C1.3 0.5 0 1.8 0 3.5V15.5C0 17.2 1.3 18.5 3 18.5H15C16.7 18.5 18 17.2 18 15.5V3.5C18 1.8 16.7 0.5 15 0.5ZM9 6.5C10.7 6.5 12 7.8 12 9.5C12 11.2 10.7 12.5 9 12.5C7.3 12.5 6 11.2 6 9.5C6 7.8 7.3 6.5 9 6.5ZM12.8 4.5C12.8 3.8 13.4 3.3 14 3.3C14.6 3.3 15.2 3.9 15.2 4.5C15.2 5.1 14.7 5.7 14 5.7C13.3 5.7 12.8 5.2 12.8 4.5ZM15 16.5H3C2.4 16.5 2 16.1 2 15.5V9.5H4C4 12.3 6.2 14.5 9 14.5C11.8 14.5 14 12.3 14 9.5H16V15.5C16 16.1 15.6 16.5 15 16.5Z" fill="#8F8F8F"/>
</svg>
