<svg width="24" height="25" viewBox="0 0 24 25" fill="none" xmlns="http://www.w3.org/2000/svg">
<path d="M12 19.1021C14.7653 19.1021 17.007 16.8604 17.007 14.0951C17.007 11.3298 14.7653 9.08807 12 9.08807C9.23469 9.08807 6.99298 11.3298 6.99298 14.0951C6.99298 16.8604 9.23469 19.1021 12 19.1021Z" stroke="black" stroke-linecap="round" stroke-linejoin="round"/>
<path d="M12 17.257C13.7463 17.257 15.162 15.8414 15.162 14.095C15.162 12.3487 13.7463 10.933 12 10.933C10.2537 10.933 8.83801 12.3487 8.83801 14.095C8.83801 15.8414 10.2537 17.257 12 17.257Z" stroke="black" stroke-linecap="round" stroke-linejoin="round"/>
<path d="M20.75 6.98008H16.5215L15.6 4.90508C15.5606 4.81677 15.4965 4.74175 15.4154 4.68913C15.3343 4.6365 15.2397 4.60853 15.143 4.60858H8.858C8.76126 4.60857 8.66659 4.63662 8.58547 4.68934C8.50436 4.74206 8.44028 4.81717 8.401 4.90558L7.479 6.98008H3.25C2.98478 6.98008 2.73043 7.08544 2.54289 7.27297C2.35536 7.46051 2.25 7.71487 2.25 7.98008V20.2101C2.25 20.4753 2.35536 20.7297 2.54289 20.9172C2.73043 21.1047 2.98478 21.2101 3.25 21.2101H20.75C21.0152 21.2101 21.2696 21.1047 21.4571 20.9172C21.6446 20.7297 21.75 20.4753 21.75 20.2101V7.98008C21.75 7.71487 21.6446 7.46051 21.4571 7.27297C21.2696 7.08544 21.0152 6.98008 20.75 6.98008V6.98008Z" stroke="black" stroke-linecap="round" stroke-linejoin="round"/>
</svg>
