<svg width="24" height="25" viewBox="0 0 24 25" fill="none" xmlns="http://www.w3.org/2000/svg">
<path d="M20 12.3636V10.6566C20 6.21465 16.521 2.49565 12.245 2.36665C10.041 2.31565 7.994 3.10265 6.429 4.62265C5.65744 5.36597 5.04444 6.25788 4.62697 7.24457C4.2095 8.23126 3.99623 9.29229 4 10.3636V12.3636C2.897 12.3636 2 13.2606 2 14.3636V18.3636C2 19.4667 2.897 20.3636 4 20.3636H6V10.3636C5.99705 9.56014 6.15688 8.76436 6.46985 8.0243C6.78282 7.28424 7.24245 6.61524 7.821 6.05765C8.39712 5.49683 9.08047 5.058 9.83014 4.76745C10.5798 4.47689 11.3804 4.34057 12.184 4.36665C15.392 4.46265 18 7.28465 18 10.6566V20.3636H20C21.103 20.3636 22 19.4667 22 18.3636V14.3636C22 13.2606 21.103 12.3636 20 12.3636Z" fill="black"/>
<path d="M7 12.3636H9V20.3636H7V12.3636ZM15 12.3636H17V20.3636H15V12.3636Z" fill="black"/>
</svg>
