<svg width="22" height="21" viewBox="0 0 22 21" fill="none" xmlns="http://www.w3.org/2000/svg">
<path d="M21.1836 10.3813L12.1273 1.32978L11.5203 0.722752C11.382 0.585353 11.1949 0.50824 11 0.50824C10.805 0.50824 10.618 0.585353 10.4797 0.722752L0.816393 10.3813C0.67467 10.5225 0.562663 10.6906 0.486984 10.8758C0.411306 11.061 0.37349 11.2594 0.375769 11.4595C0.385144 12.2845 1.07186 12.9431 1.89686 12.9431H2.89296V20.5767H19.107V12.9431H20.1242C20.525 12.9431 20.9023 12.786 21.1859 12.5024C21.3256 12.3632 21.4362 12.1977 21.5114 12.0155C21.5867 11.8332 21.625 11.6379 21.6242 11.4407C21.6242 11.0423 21.4672 10.6649 21.1836 10.3813ZM12.3125 18.8892H9.68749V14.1079H12.3125V18.8892ZM17.4195 11.2556V18.8892H13.8125V13.5454C13.8125 13.0274 13.393 12.6079 12.875 12.6079H9.12499C8.60702 12.6079 8.18749 13.0274 8.18749 13.5454V18.8892H4.58046V11.2556H2.33046L11.0023 2.59072L11.5437 3.13213L19.6719 11.2556H17.4195Z" fill="black"/>
</svg>
