<svg width="67" height="77" viewBox="0 0 67 77" fill="none" xmlns="http://www.w3.org/2000/svg">
<path d="M29.5235 20.02L20.2202 7.49147C19.1477 6.04772 17.1815 6.05414 15.9357 7.51072L8.28525 16.4523C6.00825 19.1121 5.3565 23.0615 6.67375 26.2281C14.5432 45.2374 27.6839 60.5897 43.9665 69.7973C46.678 71.3341 50.0605 70.5737 52.3375 67.914L60.0595 58.889C61.3108 57.4292 61.3135 55.1224 60.065 53.8711L49.285 43.0751C48.1575 41.9458 46.4057 42.0933 45.2755 43.4152L41.5245 47.7978C41.3325 48.0326 41.0797 48.1873 40.805 48.2383C40.5302 48.2894 40.2488 48.2338 40.0037 48.0801C33.8725 43.9609 28.7865 38.0195 25.2637 30.861C25.1318 30.5746 25.0841 30.2457 25.1278 29.9246C25.1715 29.6036 25.3043 29.3081 25.5057 29.0836L29.2457 24.717C30.3787 23.3888 30.5025 21.3386 29.5235 20.02Z" stroke="#2DC4BB" stroke-width="3" stroke-linecap="round" stroke-linejoin="round"/>
<rect x="31.5" y="2" width="29" height="15" rx="7.5" fill="#2DC4BB"/>
<path d="M35.01 12.27C35.8567 11.59 36.52 11.0333 37 10.6C37.48 10.16 37.8833 9.70333 38.21 9.23C38.5433 8.75 38.71 8.28 38.71 7.82C38.71 7.38667 38.6033 7.04667 38.39 6.8C38.1833 6.54667 37.8467 6.42 37.38 6.42C36.9267 6.42 36.5733 6.56333 36.32 6.85C36.0733 7.13 35.94 7.50667 35.92 7.98H35.04C35.0667 7.23333 35.2933 6.65667 35.72 6.25C36.1467 5.84333 36.6967 5.64 37.37 5.64C38.0567 5.64 38.6 5.83 39 6.21C39.4067 6.59 39.61 7.11333 39.61 7.78C39.61 8.33333 39.4433 8.87333 39.11 9.4C38.7833 9.92 38.41 10.38 37.99 10.78C37.57 11.1733 37.0333 11.6333 36.38 12.16H39.82V12.92H35.01V12.27ZM40.652 11.39V10.7L44.162 5.84H45.252V10.6H46.252V11.39H45.252V13H44.352V11.39H40.652ZM44.392 6.79L41.702 10.6H44.392V6.79ZM50.711 3.58L47.971 14.7H47.071L49.801 3.58H50.711ZM56.3669 6.48L53.5869 13H52.6669L55.4869 6.57H51.6269V5.79H56.3669V6.48Z" fill="#F7FAFA"/>
</svg>
