<svg width="16" height="25" viewBox="0 0 16 25" fill="none" xmlns="http://www.w3.org/2000/svg">
<path d="M12.5 2.31818C12.8978 2.31818 13.2794 2.47621 13.5607 2.75752C13.842 3.03882 14 3.42035 14 3.81818V21.8182C14 22.216 13.842 22.5975 13.5607 22.8788C13.2794 23.1601 12.8978 23.3182 12.5 23.3182H3.5C3.10218 23.3182 2.72064 23.1601 2.43934 22.8788C2.15804 22.5975 2 22.216 2 21.8182V3.81818C2 3.42035 2.15804 3.03882 2.43934 2.75752C2.72064 2.47621 3.10218 2.31818 3.5 2.31818H12.5ZM3.5 0.818176C2.70435 0.818176 1.94129 1.13425 1.37868 1.69686C0.81607 2.25947 0.5 3.02253 0.5 3.81818V21.8182C0.5 22.6138 0.81607 23.3769 1.37868 23.9395C1.94129 24.5021 2.70435 24.8182 3.5 24.8182H12.5C13.2956 24.8182 14.0587 24.5021 14.6213 23.9395C15.1839 23.3769 15.5 22.6138 15.5 21.8182V3.81818C15.5 3.02253 15.1839 2.25947 14.6213 1.69686C14.0587 1.13425 13.2956 0.818176 12.5 0.818176L3.5 0.818176Z" fill="black"/>
<path d="M8 21.8182C8.39782 21.8182 8.77936 21.6601 9.06066 21.3788C9.34196 21.0975 9.5 20.716 9.5 20.3182C9.5 19.9204 9.34196 19.5388 9.06066 19.2575C8.77936 18.9762 8.39782 18.8182 8 18.8182C7.60218 18.8182 7.22064 18.9762 6.93934 19.2575C6.65804 19.5388 6.5 19.9204 6.5 20.3182C6.5 20.716 6.65804 21.0975 6.93934 21.3788C7.22064 21.6601 7.60218 21.8182 8 21.8182Z" fill="black"/>
</svg>
