<svg width="24" height="25" viewBox="0 0 24 25" fill="none" xmlns="http://www.w3.org/2000/svg">
<path d="M2.00001 20.2273C2.07578 20.2273 2.14846 20.1878 2.20204 20.1175C2.25562 20.0471 2.28572 19.9518 2.28572 19.8523V2.22729C2.28572 1.77879 2.51544 1.47729 2.85715 1.47729H21.1429C21.4686 1.47729 21.7143 1.82829 21.7143 2.29404V19.8523C21.7143 19.9518 21.7444 20.0471 21.798 20.1175C21.8516 20.1878 21.9242 20.2273 22 20.2273C22.0758 20.2273 22.1485 20.1878 22.202 20.1175C22.2556 20.0471 22.2857 19.9518 22.2857 19.8523V2.29404C22.2857 1.41504 21.784 0.727295 21.1429 0.727295H2.85715C2.19487 0.727295 1.71429 1.35804 1.71429 2.22729V19.8523C1.71429 19.9518 1.7444 20.0471 1.79798 20.1175C1.85156 20.1878 1.92423 20.2273 2.00001 20.2273Z" fill="black"/>
<path d="M3.71429 2.97729C3.63851 2.97729 3.56584 3.0168 3.51226 3.08713C3.45867 3.15746 3.42857 3.25284 3.42857 3.35229V19.8523C3.42857 19.9518 3.45867 20.0471 3.51226 20.1175C3.56584 20.1878 3.63851 20.2273 3.71429 20.2273H20.2857C20.3615 20.2273 20.4342 20.1878 20.4877 20.1175C20.5413 20.0471 20.5714 19.9518 20.5714 19.8523V3.35229C20.5714 3.25284 20.5413 3.15746 20.4877 3.08713C20.4342 3.0168 20.3615 2.97729 20.2857 2.97729H3.71429ZM20 19.4773H4V3.72729H20V19.4773ZM23.7143 21.7273H0.285714C0.209938 21.7273 0.137266 21.7668 0.0836838 21.8371C0.030102 21.9075 0 22.0028 0 22.1023L0 22.9835C0 23.882 0.804571 24.7273 1.42857 24.7273H22.5714C23.2257 24.7273 24 23.711 24 22.8523V22.1023C24 22.0028 23.9699 21.9075 23.9163 21.8371C23.8627 21.7668 23.7901 21.7273 23.7143 21.7273ZM23.4286 22.8523C23.4286 23.294 22.908 23.9773 22.5714 23.9773H1.42857C1.068 23.9773 0.571429 23.4013 0.571429 22.9835V22.4773H23.4286V22.8523Z" fill="black"/>
</svg>
