<svg width="98" height="89" viewBox="0 0 98 89" fill="none" xmlns="http://www.w3.org/2000/svg">
<path d="M76.2812 13.9062H67.1875V11.125C67.1875 9.64973 66.5488 8.23489 65.4118 7.19172C64.2749 6.14855 62.7329 5.5625 61.125 5.5625H36.875C35.2671 5.5625 33.7251 6.14855 32.5882 7.19172C31.4512 8.23489 30.8125 9.64973 30.8125 11.125V13.9062H21.7188C20.1109 13.9062 18.5689 14.4923 17.4319 15.5355C16.295 16.5786 15.6563 17.9935 15.6562 19.4688V77.875C15.6563 79.3503 16.295 80.7651 17.4319 81.8083C18.5689 82.8514 20.1109 83.4375 21.7188 83.4375H76.2812C77.8891 83.4375 79.4311 82.8514 80.5681 81.8083C81.705 80.7651 82.3438 79.3503 82.3438 77.875V19.4688C82.3438 17.9935 81.705 16.5786 80.5681 15.5355C79.4311 14.4923 77.8891 13.9062 76.2812 13.9062ZM36.875 11.125H61.125V22.25H36.875V11.125ZM76.2812 77.875H21.7188V19.4688H30.8125V27.8125H67.1875V19.4688H76.2812V77.875Z" fill="#2DC4BB"/>
<line x1="30.8333" y1="36.0833" x2="67.2083" y2="36.0833" stroke="#2DC4BB" stroke-width="2"/>
<line x1="30.8333" y1="47.2083" x2="67.2083" y2="47.2083" stroke="#2DC4BB" stroke-width="2"/>
<line x1="30.8333" y1="58.3333" x2="67.2083" y2="58.3333" stroke="#2DC4BB" stroke-width="2"/>
<line x1="30.8333" y1="69.4583" x2="67.2083" y2="69.4583" stroke="#2DC4BB" stroke-width="2"/>
</svg>
