<svg width="24" height="24" viewBox="0 0 24 24" fill="none" xmlns="http://www.w3.org/2000/svg">
<path d="M12.6245 9.65016C13.3527 9.71059 14.0243 10.0224 14.4926 10.5175C14.9608 11.0125 15.1877 11.6507 15.1237 12.2926C15.1134 12.3887 15.1248 12.4855 15.1571 12.5777C15.1894 12.6698 15.2421 12.7554 15.3122 12.8296C15.3822 12.9038 15.4681 12.965 15.5651 13.0098C15.6621 13.0546 15.7681 13.0821 15.8772 13.0907C16.0975 13.1083 16.3168 13.0484 16.4871 12.924C16.6574 12.7996 16.7649 12.6209 16.786 12.4269C16.8916 11.3958 16.5289 10.37 15.7774 9.57407C15.0259 8.77815 13.947 8.27711 12.7769 8.18072C12.6653 8.16727 12.5518 8.17388 12.4431 8.20013C12.3345 8.22639 12.233 8.27176 12.1449 8.33351C12.0567 8.39525 11.9836 8.47209 11.9301 8.55939C11.8765 8.6467 11.8436 8.74264 11.8333 8.84146C11.823 8.94027 11.8355 9.0399 11.8701 9.13433C11.9047 9.22876 11.9607 9.31604 12.0346 9.3909C12.1085 9.46577 12.1989 9.52666 12.3003 9.56991C12.4017 9.61316 12.512 9.63788 12.6245 9.64256V9.65016ZM23.6021 19.0748C23.349 18.748 23.0815 18.4364 22.9003 18.2337C22.0203 17.2355 20.2544 15.4468 18.2988 14.5931C18.1332 14.5248 17.9524 14.4902 17.7696 14.4917C17.1013 14.5584 16.4507 14.7246 15.8456 14.9832C15.5384 15.158 15.2822 15.3941 15.0978 15.6723C15.0029 15.7914 14.8879 15.9257 14.7441 16.0904C14.5082 16.3437 14.1689 16.6224 13.8007 16.6224C13.5849 16.6064 13.3782 16.539 13.2025 16.4273C12.1931 15.6951 11.1491 14.5931 10.1626 13.4935L10.1368 13.3896L9.95556 13.2579C8.97773 12.1355 8.00279 10.96 7.43623 9.89845C7.28955 9.50829 7.18314 9.10546 8.18685 8.66969C8.35312 8.59831 8.52406 8.53571 8.69877 8.48221L8.74191 8.46701C9.09144 8.37865 9.41191 8.21795 9.6766 7.99831C9.6766 7.99831 10.8931 6.77462 10.7033 5.99176C10.2834 4.2335 8.90872 2.40684 7.82736 1.17808C7.39596 0.689115 7.08823 0.385094 7.05372 0.352159C6.9405 0.241364 6.80211 0.152762 6.64753 0.0920959C6.49295 0.0314299 6.32564 5.40326e-05 6.15642 0L4.64365 0.0633379C4.43908 0.0739286 4.24102 0.130632 4.06846 0.228015C4.06846 0.228015 3.39548 0.620711 2.91807 0.965269C2.83179 1.02861 2.74263 1.09701 2.65635 1.16542C1.67852 1.92547 0.441851 3.16183 0.0881069 4.71234C0.0159428 5.03933 -0.0120465 5.37269 0.00471001 5.70548C0.0115962 5.93162 0.0385289 6.15694 0.0852456 6.37939C0.0913459 6.42032 0.0999769 6.46091 0.11112 6.501C0.973911 9.55642 3.13377 13.3567 5.63299 16.1816L5.68475 16.2398L5.73652 16.3538L5.85444 16.4324L5.87456 16.4552C8.36228 19.2725 12.0033 22.0517 15.1553 23.549C15.2038 23.5718 15.2537 23.5922 15.3049 23.6098C15.5381 23.705 15.7794 23.7838 16.0268 23.8455C16.3815 23.9324 16.7461 23.9842 17.1139 24C17.203 24 17.2893 24 17.3784 24C19.0839 24 20.6427 23.2805 21.6378 22.68C21.747 22.6167 21.8477 22.5534 21.9254 22.4951C22.3481 22.2265 22.8543 21.8288 22.9895 21.7198C23.158 21.5895 23.2816 21.4201 23.3461 21.2309L23.7574 20.0376C23.8139 19.8869 23.8313 19.727 23.8084 19.5696C23.7856 19.4122 23.7229 19.2613 23.6251 19.128L23.6021 19.0748ZM21.4911 20.5063C21.2581 20.6887 20.9648 20.904 20.7433 21.0459C20.6743 21.0915 20.5995 21.1371 20.5104 21.1903C19.7022 21.6768 18.4512 22.262 17.2088 22.2037C16.9918 22.1944 16.7767 22.1638 16.5674 22.1125C16.4117 22.0735 16.2597 22.0235 16.113 21.9631L16.0526 21.9377C13.1767 20.5646 9.83765 18.0234 7.52824 15.4316V15.3658L7.28667 15.1555L7.21477 15.077C4.89386 12.4497 2.88068 8.93824 2.07541 6.12097V6.06777C2.04461 5.92822 2.02634 5.78675 2.02077 5.64467C2.01576 5.45169 2.03505 5.25881 2.07829 5.06956C2.32275 3.99789 3.26031 3.08076 4.01094 2.49551L4.22663 2.33337C4.45671 2.16362 4.80183 1.95587 5.00315 1.82667L5.82279 1.7912C5.93783 1.9128 6.08739 2.07495 6.25995 2.27003C6.99907 3.10862 8.27312 4.68954 8.69589 6.13871C8.5663 6.34297 8.42421 6.54087 8.27025 6.73155L8.05455 6.80502H8.02004C7.78052 6.87907 7.54535 6.96362 7.31542 7.05837C6.33759 7.48401 4.81047 8.49488 5.56685 10.4888L5.6071 10.58C6.23981 11.7834 7.27517 13.0476 8.31627 14.246L8.35652 14.4005L8.55209 14.517C9.63921 15.7306 10.8069 16.9619 12.0033 17.8106L12.0982 17.8714C12.6054 18.1842 13.2049 18.3602 13.8237 18.3781C14.7239 18.3781 15.5493 17.988 16.2971 17.2228C16.4704 17.042 16.6317 16.8525 16.7803 16.6553C16.8263 16.5996 16.8752 16.5337 16.9125 16.4932C17.1583 16.4084 17.4088 16.3348 17.6632 16.2728C19.2191 17.0328 20.7318 18.6315 21.3272 19.313C21.4393 19.4397 21.5889 19.6145 21.7442 19.802L21.4911 20.5063ZM13.3693 6.54914C14.9326 6.67637 16.3746 7.34496 17.3786 8.40807C18.3827 9.47119 18.8667 10.8419 18.7244 12.2191C18.7091 12.3175 18.7166 12.4175 18.7464 12.5132C18.7763 12.6089 18.8278 12.6982 18.8978 12.7759C18.9679 12.8536 19.0552 12.918 19.1543 12.9651C19.2534 13.0123 19.3623 13.0413 19.4745 13.0504C19.5866 13.0595 19.6997 13.0484 19.8069 13.0179C19.9141 12.9875 20.0132 12.9382 20.0982 12.873C20.1832 12.8079 20.2523 12.7283 20.3014 12.639C20.3505 12.5497 20.3785 12.4525 20.3838 12.3534C20.5669 10.5881 19.9471 8.83101 18.6604 7.4681C17.3737 6.10518 15.5255 5.24796 13.5218 5.08477C13.3013 5.06663 13.0818 5.12637 12.9113 5.25085C12.7409 5.37533 12.6336 5.55436 12.613 5.74855C12.5924 5.94274 12.6602 6.13618 12.8015 6.28632C12.9428 6.43646 13.146 6.531 13.3665 6.54914H13.3693ZM14.2695 2.00654C14.1581 1.99332 14.0449 2.00007 13.9366 2.02637C13.8282 2.05267 13.727 2.09799 13.6391 2.1596C13.5511 2.22121 13.4782 2.29785 13.4247 2.38491C13.3712 2.47197 13.3382 2.56765 13.3277 2.66622C13.3173 2.76479 13.3295 2.8642 13.3638 2.95849C13.398 3.05279 13.4535 3.14001 13.527 3.21493C13.6004 3.28985 13.6903 3.35092 13.7912 3.39448C13.8921 3.43803 14.002 3.46317 14.1142 3.46838C16.5028 3.66436 18.7056 4.6869 20.2395 6.31171C21.7734 7.93651 22.5131 10.0309 22.2964 12.1355C22.2811 12.2339 22.2886 12.3339 22.3184 12.4296C22.3482 12.5253 22.3997 12.6146 22.4698 12.6923C22.5399 12.77 22.6271 12.8344 22.7262 12.8815C22.8253 12.9287 22.9342 12.9577 23.0464 12.9668C23.1586 12.9759 23.2717 12.9648 23.3789 12.9343C23.4861 12.9039 23.5851 12.8546 23.6701 12.7894C23.7551 12.7243 23.8242 12.6447 23.8733 12.5554C23.9224 12.4661 23.9505 12.3689 23.9558 12.2698C24.2133 9.77784 23.338 7.29765 21.5221 5.37352C19.7061 3.44938 17.0978 2.23848 14.2695 2.00654Z" fill="#2DC4BB"/>
</svg>
