<svg width="21" height="19" viewBox="0 0 21 19" fill="none" xmlns="http://www.w3.org/2000/svg">
<path d="M20.6 8.49271L16 4.79271V2.27271C16.0245 1.76765 15.8477 1.27349 15.5084 0.898572C15.1691 0.523657 14.695 0.298586 14.19 0.272705H2.78998C2.28855 0.303665 1.8195 0.530938 1.48446 0.905289C1.14941 1.27964 0.975352 1.77092 0.999979 2.27271V12.2727C0.990698 12.6698 1.09987 13.0607 1.31359 13.3955C1.5273 13.7303 1.83588 13.9939 2.19998 14.1527C2.01581 14.6033 1.94404 15.0918 1.99085 15.5763C2.03765 16.0608 2.20164 16.5266 2.46865 16.9336C2.73566 17.3405 3.09769 17.6764 3.52348 17.9122C3.94927 18.148 4.42605 18.2767 4.91267 18.2871C5.39929 18.2976 5.88114 18.1894 6.31665 17.9721C6.75215 17.7547 7.12823 17.4346 7.41243 17.0395C7.69663 16.6444 7.88042 16.186 7.94794 15.704C8.01546 15.2219 7.96468 14.7307 7.79998 14.2727H14.16C13.9955 14.7258 13.9427 15.2119 14.0059 15.6898C14.0692 16.1677 14.2466 16.6233 14.5233 17.0181C14.8 17.4128 15.1677 17.7351 15.5953 17.9576C16.023 18.1801 16.4979 18.2962 16.98 18.2962C17.462 18.2962 17.937 18.1801 18.3646 17.9576C18.7923 17.7351 19.16 17.4128 19.4367 17.0181C19.7133 16.6233 19.8908 16.1677 19.954 15.6898C20.0173 15.2119 19.9644 14.7258 19.8 14.2727H20C20.2652 14.2727 20.5196 14.1673 20.7071 13.9798C20.8946 13.7923 21 13.5379 21 13.2727V9.27271C20.9969 9.12085 20.9593 8.97169 20.89 8.83654C20.8207 8.70139 20.7215 8.58381 20.6 8.49271ZM19 9.7527V12.2727H16V7.35271L19 9.7527ZM5.99998 15.2727C5.99998 15.4705 5.94133 15.6638 5.83145 15.8283C5.72157 15.9927 5.56539 16.1209 5.38266 16.1966C5.19994 16.2723 4.99887 16.2921 4.80489 16.2535C4.61091 16.2149 4.43273 16.1197 4.29287 15.9798C4.15302 15.84 4.05778 15.6618 4.01919 15.4678C3.98061 15.2738 4.00041 15.0727 4.0761 14.89C4.15179 14.7073 4.27996 14.5511 4.44441 14.4412C4.60886 14.3314 4.8022 14.2727 4.99998 14.2727C5.2652 14.2727 5.51955 14.3781 5.70709 14.5656C5.89462 14.7531 5.99998 15.0075 5.99998 15.2727ZM11 12.2727H2.99998V2.27271H14V12.2727H11ZM18 15.2727C18 15.4705 17.9413 15.6638 17.8314 15.8283C17.7216 15.9927 17.5654 16.1209 17.3827 16.1966C17.1999 16.2723 16.9989 16.2921 16.8049 16.2535C16.6109 16.2149 16.4327 16.1197 16.2929 15.9798C16.153 15.84 16.0578 15.6618 16.0192 15.4678C15.9806 15.2738 16.0004 15.0727 16.0761 14.89C16.1518 14.7073 16.28 14.5511 16.4444 14.4412C16.6089 14.3314 16.8022 14.2727 17 14.2727C17.2652 14.2727 17.5196 14.3781 17.7071 14.5656C17.8946 14.7531 18 15.0075 18 15.2727Z" fill="black"/>
</svg>
