<svg width="19" height="18" viewBox="0 0 19 18" fill="none" xmlns="http://www.w3.org/2000/svg">
<path fill-rule="evenodd" clip-rule="evenodd" d="M12.2092 6.29048C12.2092 9.16696 9.74646 11.581 6.60462 11.581C3.46279 11.581 1 9.16696 1 6.29048C1 3.41399 3.46279 1 6.60462 1C9.74646 1 12.2092 3.41399 12.2092 6.29048ZM10.5196 11.3572C9.42404 12.1264 8.07007 12.581 6.60462 12.581C2.95699 12.581 0 9.76461 0 6.29048C0 2.81634 2.95699 0 6.60462 0C10.2523 0 13.2092 2.81634 13.2092 6.29048C13.2092 8.03836 12.4608 9.61974 11.2524 10.7597C11.2909 10.7807 11.3272 10.8069 11.36 10.8382L17.9744 17.138C18.1744 17.3284 18.1744 17.6372 17.9744 17.8276C17.7744 18.0181 17.4502 18.0181 17.2503 17.8276L10.6359 11.5279C10.5833 11.4778 10.5445 11.4194 10.5196 11.3572Z" fill="#F2F2F2"/>
</svg>
