<svg width="14" height="23" viewBox="0 0 14 23" fill="none" xmlns="http://www.w3.org/2000/svg">
<path d="M7 8.45453V11.4545L9 12.4545L7 8.45453ZM13 11.4545C13 13.0458 12.3679 14.572 11.2426 15.6972C10.1174 16.8224 8.5913 17.4545 7 17.4545C5.4087 17.4545 3.88258 16.8224 2.75736 15.6972C1.63214 14.572 1 13.0458 1 11.4545C1 9.86323 1.63214 8.33711 2.75736 7.21189C3.88258 6.08667 5.4087 5.45453 7 5.45453C8.5913 5.45453 10.1174 6.08667 11.2426 7.21189C12.3679 8.33711 13 9.86323 13 11.4545V11.4545Z" stroke="black" stroke-width="2" stroke-linecap="round" stroke-linejoin="round"/>
<path d="M10 16.9545V20.4545C10 20.7197 9.89464 20.9741 9.70711 21.1616C9.51957 21.3492 9.26522 21.4545 9 21.4545H5C4.73478 21.4545 4.48043 21.3492 4.29289 21.1616C4.10536 20.9741 4 20.7197 4 20.4545V16.9545M10 5.95453V2.45453C10 2.18931 9.89464 1.93496 9.70711 1.74742C9.51957 1.55989 9.26522 1.45453 9 1.45453H5C4.73478 1.45453 4.48043 1.55989 4.29289 1.74742C4.10536 1.93496 4 2.18931 4 2.45453V5.95453H10Z" stroke="black" stroke-width="2" stroke-linecap="round" stroke-linejoin="round"/>
</svg>
